<svg width="120" height="120" viewBox="0 0 120 120" fill="none" xmlns="http://www.w3.org/2000/svg">
<path d="M117.247 72.2552L108.149 59.639L93.4211 39.214C92.6729 38.182 90.9443 38.182 90.2004 39.214L75.4772 59.6347L66.3741 72.2552C66.0043 72.7712 65.9011 73.4291 66.0946 74.0311C66.2924 74.6331 66.7611 75.1061 67.3631 75.3039L91.1894 83.1041H91.1937C91.3915 83.1686 91.5979 83.203 91.8086 83.203C92.0193 83.203 92.2257 83.1686 92.4235 83.1041H92.4278L116.254 75.3039C116.856 75.1061 117.329 74.6374 117.523 74.0311C117.72 73.4291 117.617 72.7712 117.243 72.2552H117.247ZM91.8129 43.7677L101.363 57.0117L92.4321 54.0877C92.3633 54.0662 92.2902 54.0705 92.2214 54.0533C92.1526 54.0361 92.0838 54.0275 92.015 54.0189C91.9462 54.0103 91.8817 53.9845 91.8129 53.9845C91.7441 53.9845 91.6796 54.0103 91.6108 54.0189C91.5377 54.0275 91.4732 54.0361 91.4044 54.0533C91.3356 54.0662 91.2625 54.0662 91.198 54.0877L82.3228 56.9945L82.2669 57.0117L91.8172 43.7677H91.8129ZM78.3195 62.4813L88.7169 59.0757L89.8263 58.7145V78.4816L71.1858 72.3756L78.3195 62.4813ZM93.7995 78.4773V58.7145L105.306 62.4813L112.44 72.3713L93.7995 78.4773Z" fill="#E520E9"/>
<path d="M20.7241 50L27.5751 60.54L20.7241 71.08" stroke="#1A1A1A" stroke-width="4.4" stroke-linecap="round" stroke-linejoin="round"/>
<path d="M30.537 67.391H43.7119" stroke="#1A1A1A" stroke-width="4.4" stroke-linecap="round"/>
<path d="M47.1738 81H22.9467C19.2467 80.999 15.6198 79.9668 12.4714 78.0185C9.32292 76.0702 6.77695 73.2827 5.11796 69.9675C3.45897 66.6522 2.75232 62.9399 3.07696 59.2452C3.4016 55.5505 4.74474 52.0192 6.95631 49.0457C9.16787 46.0722 12.1607 43.7737 15.6004 42.4071C19.0401 41.0405 22.7912 40.6596 26.4344 41.307C30.0776 41.9544 33.4695 43.6046 36.231 46.0732C38.9924 48.5417 41.0147 51.7314 42.0719 55.2857H47.1738C50.5756 55.2857 53.8379 56.6403 56.2433 59.0515C58.6487 61.4627 60 64.7329 60 68.1429C60 71.5528 58.6487 74.823 56.2433 77.2342C53.8379 79.6454 50.5756 81 47.1738 81Z" stroke="black" stroke-width="4" stroke-linecap="round" stroke-linejoin="round"/>
<path d="M59 53H73M66 60L73 53L66 46" stroke="black" stroke-width="2" stroke-linecap="round" stroke-linejoin="round"/>
</svg>
